<?xml version="1.0" encoding="utf-8"?>
<!-- Generator: Adobe Illustrator 22.1.0, SVG Export Plug-In . SVG Version: 6.00 Build 0)  -->
<svg version="1.1" id="Capa_1" xmlns="http://www.w3.org/2000/svg" xmlns:xlink="http://www.w3.org/1999/xlink" x="0px" y="0px"
	 viewBox="0 0 512 512" style="enable-background:new 0 0 512 512;" xml:space="preserve">
<style type="text/css">
	.st0{fill:none;}
	.st1{fill:#333;}
</style>
<path class="st0" d="M512,256c0,128-93.9,234-216.6,253c-2.8,0.4-5.6,0.8-8.4,1.1c-9,1.1-18.2,1.7-27.4,1.8c-1.2,0-2.4,0-3.7,0
	s-2.4,0-3.7,0c-9.3-0.1-18.4-0.7-27.4-1.8c-2.8-0.3-5.6-0.7-8.4-1.1C93.9,490,0,384,0,256C0,114.6,114.6,0,256,0S512,114.6,512,256z
	"/>
<g>
	<path class="st1" d="M192.2,438.9c0.1,21.4,0.3,41.6,0.3,47.7c0,6.8-4.7,14.7-17.5,12.3C88.9,470.2,23.1,397,5,306.5v0
		c-0.2-1-0.4-2-0.6-3.1c-1-5.2-1.8-10.5-2.5-15.8c-0.1-1-0.3-2.1-0.4-3.1C0.5,275.2,0,265.6,0,256C0,114.6,114.6,0,256,0
		c141.4,0,256,114.6,256,256c0,9.6-0.5,19.2-1.6,28.5c-0.1,1-0.2,2.1-0.4,3.1c-0.7,5.3-1.5,10.6-2.5,15.8c-0.2,1-0.4,2.1-0.6,3.1
		c-18.1,90.4-83.8,163.7-169.9,192.4c-13,2.5-17.6-5.5-17.6-12.3c0-8.4,0.3-36,0.3-70.2c0-23.9-8.2-39.5-17.4-47.4
		c44.3-4.9,90.4-19.1,108.7-71.5c0.4-1,0.7-2.1,1-3.1c1-3.2,1.9-6.5,2.7-10c0.2-1,0.5-2.1,0.7-3.1c2.4-11.3,3.7-24.1,3.7-38.6
		c0-27.9-9.9-50.8-26.4-68.7c2.7-6.4,11.4-32.5-2.5-67.8c0,0-21.5-6.9-70.3,26.2c-20.5-5.7-42.4-8.5-64.1-8.6
		c-21.8,0.1-43.7,2.9-64.1,8.6c-48.9-33.1-70.4-26.2-70.4-26.2c-13.9,35.3-5.1,61.3-2.5,67.8c-16.4,17.9-26.4,40.8-26.4,68.7
		c0,14.5,1.3,27.3,3.7,38.6c0.2,1.1,0.4,2.1,0.7,3.1c0.8,3.5,1.7,6.8,2.8,10c0.3,1.1,0.7,2.1,1,3.1c18.3,52.3,64.2,66.6,108.4,71.7
		c-7.3,6.4-14,17.7-16.3,34.2c-14.6,6.5-51.7,17.8-74.5-21.3c0,0-13.5-24.6-39.2-26.4c0,0-25-0.3-1.7,15.6c0,0,16.8,7.9,28.4,37.5"
		/>
</g>
</svg>
