<?xml version="1.0" encoding="utf-8"?>
<!-- Generator: Adobe Illustrator 22.1.0, SVG Export Plug-In . SVG Version: 6.00 Build 0)  -->
<svg version="1.1" id="Calque_1" xmlns="http://www.w3.org/2000/svg" xmlns:xlink="http://www.w3.org/1999/xlink" x="0px" y="0px"
	 viewBox="0 0 682.7 682.7" style="enable-background:new 0 0 682.7 682.7;" xml:space="preserve">
<style type="text/css">
	.st0{fill:#333;}
</style>
<path class="st0" d="M187.1,661H21.7V215.2h165.5V661z"/>
<path class="st0" d="M661,661H498.9l0.1-197.2c0.7-32-12.2-58.4-34.6-70.6c-15.3-8.4-33-8.4-49.5-0.3L413.5,661H243.8V215.2h169.8
	v18.1c52.7-21.4,108.7-18.3,157.3,9.5C625.6,274.1,661,332,661,390.4V661z"/>
<path class="st0" d="M104.1,187.3C58.3,187.3,21,150,21,104.2S58.3,21,104.1,21c45.8,0,83.1,37.3,83.1,83.2S149.9,187.3,104.1,187.3
	z"/>
<path d="M341.3,414.6"/>
</svg>
